<?xml version="1.0" encoding="iso-8859-1"?>
<!-- Generator: Adobe Illustrator 18.0.0, SVG Export Plug-In . SVG Version: 6.00 Build 0)  -->
<!DOCTYPE svg PUBLIC "-//W3C//DTD SVG 1.1//EN" "http://www.w3.org/Graphics/SVG/1.1/DTD/svg11.dtd">
<svg version="1.1" id="Capa_1" xmlns="http://www.w3.org/2000/svg" xmlns:xlink="http://www.w3.org/1999/xlink" x="0px" y="0px"
	 viewBox="0 0 490.817 490.817" style="enable-background:new 0 0 490.817 490.817;" xml:space="preserve">
<g>
	<path d="M125.211,358.045c-55.818,0-101.229,41.99-101.229,93.602c0,21.814,11.816,33.827,33.271,33.827
		c11.15,0,24.015-2.98,36.457-5.862c11.209-2.596,22.8-5.281,31.501-5.281c7.72,0,18.269,2.46,29.437,5.064
		c12.819,2.989,26.073,6.08,37.732,6.08c0.001,0,0.004,0,0.006,0c21.96-0.002,34.055-12.015,34.055-33.827
		C226.44,400.035,181.029,358.045,125.211,358.045z M192.384,468.474c-0.002,0-0.002,0-0.004,0c-9.703,0-21.99-2.865-33.872-5.636
		c-12.147-2.832-23.622-5.508-33.297-5.508c-10.645,0-23.198,2.908-35.338,5.72c-11.51,2.666-23.413,5.423-32.62,5.423
		c-10.553,0-16.271-2.682-16.271-16.827c0-42.238,37.785-76.602,84.229-76.602c46.444,0,84.229,34.364,84.229,76.602
		C209.44,464.227,205.137,468.473,192.384,468.474z"/>
	<path d="M77.753,320.58c0-31.438-17.077-56.064-38.876-56.064C17.077,264.516,0,289.143,0,320.58s17.077,56.064,38.877,56.064
		C60.677,376.644,77.753,352.018,77.753,320.58z M17,320.58c0-23.021,11.529-39.064,21.877-39.064
		c10.347,0,21.876,16.043,21.876,39.064c0,23.021-11.529,39.064-21.876,39.064C28.529,359.644,17,343.601,17,320.58z"/>
	<path d="M128.409,341.47c21.8,0,38.877-24.626,38.877-56.063s-17.077-56.064-38.877-56.064s-38.877,24.627-38.877,56.064
		S106.608,341.47,128.409,341.47z M128.409,246.343c10.348,0,21.877,16.043,21.877,39.064c0,23.021-11.529,39.063-21.877,39.063
		c-10.348,0-21.877-16.043-21.877-39.063C106.532,262.386,118.061,246.343,128.409,246.343z"/>
	<path d="M217.94,264.516c-21.8,0-38.877,24.626-38.877,56.064s17.077,56.064,38.877,56.064c21.8,0,38.877-24.626,38.877-56.064
		S239.741,264.516,217.94,264.516z M217.94,359.644c-10.348,0-21.877-16.043-21.877-39.064c0-23.021,11.529-39.064,21.877-39.064
		c10.348,0,21.877,16.043,21.877,39.064C239.817,343.601,228.288,359.644,217.94,359.644z"/>
	<path d="M359.211,134.045c-55.818,0-101.229,41.99-101.229,93.602c0,21.813,11.816,33.827,33.271,33.827
		c11.15,0,24.015-2.98,36.457-5.862c11.209-2.596,22.8-5.281,31.501-5.281c7.72,0,18.269,2.46,29.437,5.064
		c12.819,2.989,26.073,6.08,37.732,6.08c0.001,0,0.004,0,0.006,0c21.96-0.002,34.055-12.015,34.055-33.827
		C460.44,176.035,415.029,134.045,359.211,134.045z M426.384,244.474c-0.002,0-0.002,0-0.004,0c-9.703,0-21.99-2.865-33.872-5.636
		c-12.147-2.833-23.622-5.508-33.297-5.508c-10.645,0-23.198,2.908-35.338,5.72c-11.51,2.666-23.413,5.423-32.62,5.423
		c-10.553,0-16.271-2.682-16.271-16.827c0-42.238,37.785-76.602,84.229-76.602s84.229,34.364,84.229,76.602
		C443.44,240.227,439.137,244.473,426.384,244.474z"/>
	<path d="M272.877,152.644c21.8,0,38.876-24.626,38.876-56.063s-17.077-56.064-38.876-56.064c-21.8,0-38.877,24.626-38.877,56.064
		S251.077,152.644,272.877,152.644z M272.877,57.516c10.347,0,21.876,16.043,21.876,39.064c0,23.021-11.529,39.063-21.876,39.063
		c-10.348,0-21.877-16.043-21.877-39.063C251,73.559,262.529,57.516,272.877,57.516z"/>
	<path d="M362.409,117.47c21.8,0,38.877-24.626,38.877-56.063S384.209,5.343,362.409,5.343c-21.8,0-38.877,24.627-38.877,56.064
		S340.608,117.47,362.409,117.47z M362.409,22.343c10.348,0,21.877,16.043,21.877,39.064c0,23.021-11.529,39.063-21.877,39.063
		c-10.348,0-21.877-16.043-21.877-39.063C340.532,38.386,352.061,22.343,362.409,22.343z"/>
	<path d="M451.94,40.516c-21.8,0-38.877,24.626-38.877,56.064s17.077,56.063,38.877,56.063c21.8,0,38.877-24.626,38.877-56.063
		S473.741,40.516,451.94,40.516z M451.94,135.644c-10.348,0-21.877-16.043-21.877-39.063c0-23.021,11.529-39.064,21.877-39.064
		c10.348,0,21.877,16.043,21.877,39.064C473.817,119.601,462.288,135.644,451.94,135.644z"/>
</g>
<g>
</g>
<g>
</g>
<g>
</g>
<g>
</g>
<g>
</g>
<g>
</g>
<g>
</g>
<g>
</g>
<g>
</g>
<g>
</g>
<g>
</g>
<g>
</g>
<g>
</g>
<g>
</g>
<g>
</g>
</svg>
