<svg id="Capa_1" enable-background="new 0 0 507.899 507.899" height="512" viewBox="0 0 507.899 507.899" width="512" xmlns="http://www.w3.org/2000/svg"><g><path d="m505.002 438.694-15.112-25.077-16.215-74.925c-.875-4.048-4.869-6.616-8.916-5.744-4.049.876-6.62 4.869-5.744 8.917l14.512 67.056h-332.439c-4.143 0-7.5 3.358-7.5 7.5s3.357 7.5 7.5 7.5h337.499l13.568 22.514c1.341 2.226.495 4.22.069 4.973-.426.754-1.696 2.507-4.295 2.507h-467.959c-2.599 0-3.869-1.753-4.295-2.507-.426-.753-1.271-2.747.069-4.973l13.568-22.515h70.452c4.143 0 7.5-3.358 7.5-7.5s-3.357-7.5-7.5-7.5h-65.392l25.511-117.877c1.718-7.938 8.86-13.7 16.982-13.7h354.168c8.122 0 15.265 5.762 16.982 13.701l4.227 19.529c.877 4.049 4.866 6.62 8.917 5.744 4.048-.876 6.619-4.868 5.743-8.917l-4.227-19.529c-2.761-12.764-13.051-22.501-25.543-24.933-2.454-21.212-16.1-39.593-36.162-47.96l-.896-.374-2.169-4.779c-9.615-21.19-30.863-34.882-54.134-34.882h-5.125l-5.543-10.026c-8.845-16.001-24.914-27.214-42.986-29.995l-1.429-.219c-19.854-18.183-50.627-18.183-70.48 0l-1.43.22c-18.071 2.78-34.141 13.993-42.985 29.994l-5.543 10.026h-5.125c-4.483 0-8.982.514-13.372 1.528-4.036.932-6.552 4.959-5.62 8.996.932 4.035 4.961 6.555 8.995 5.62 3.284-.758 6.647-1.143 9.997-1.143h9.549c2.729 0 5.243-1.483 6.563-3.872l7.683-13.897c6.613-11.963 18.628-20.347 32.139-22.425l3.71-.57c1.488-.229 2.874-.901 3.976-1.928l1.349-1.257c14.218-13.258 36.493-13.258 50.711 0l1.349 1.258c1.102 1.027 2.487 1.699 3.976 1.928l3.709.57c13.512 2.079 25.526 10.463 32.14 22.426l7.683 13.897c1.32 2.389 3.834 3.872 6.563 3.872h9.549c17.398 0 33.285 10.237 40.475 26.081l3.389 7.466c.783 1.727 2.191 3.092 3.941 3.822l3.619 1.509c14.257 5.946 24.174 18.658 26.697 33.521h-336.891c2.522-14.863 12.44-27.575 26.699-33.521l3.618-1.509c1.75-.73 3.158-2.096 3.941-3.822l3.39-7.467c1.75-3.857 4.041-7.441 6.81-10.653 2.704-3.138 2.354-7.874-.784-10.578-3.136-2.704-7.872-2.353-10.577.784-3.703 4.296-6.768 9.09-9.107 14.249l-2.17 4.78-.895.374c-20.13 8.396-33.805 26.871-36.191 48.174-12.027 2.754-21.83 12.307-24.515 24.719l-27.214 125.743-15.112 25.077c-3.76 6.239-3.865 13.75-.282 20.093 3.583 6.342 10.071 10.128 17.355 10.128h467.959c7.284 0 13.772-3.787 17.355-10.128 3.583-6.343 3.478-13.854-.282-20.094z"/><path d="m366.811 293.653c-14.484 0-27.348 8.589-33.058 21.485h-18.345c-4.143 0-7.5 3.358-7.5 7.5s3.357 7.5 7.5 7.5h23.652c3.422 0 6.409-2.315 7.263-5.629 2.405-9.335 10.83-15.856 20.487-15.856 11.664 0 21.154 9.49 21.154 21.154 0 3.711-.98 7.366-2.834 10.569-1.346 2.324-1.347 5.191-.001 7.515 1.854 3.204 2.835 6.858 2.835 10.57 0 11.664-9.49 21.154-21.154 21.154-9.657 0-18.082-6.521-20.487-15.856-.854-3.313-3.841-5.629-7.263-5.629h-170.222c-3.422 0-6.409 2.315-7.263 5.629-2.405 9.335-10.83 15.856-20.487 15.856-11.664 0-21.154-9.49-21.154-21.154 0-3.711.98-7.366 2.835-10.57 1.346-2.324 1.345-5.191-.001-7.515-1.854-3.203-2.834-6.857-2.834-10.569 0-11.665 9.49-21.154 21.154-21.154 9.657 0 18.082 6.521 20.487 15.856.854 3.313 3.841 5.629 7.263 5.629h114.608c4.143 0 7.5-3.358 7.5-7.5s-3.357-7.5-7.5-7.5h-109.3c-5.71-12.896-18.573-21.485-33.058-21.485-19.936 0-36.154 16.219-36.154 36.154 0 4.938 1.016 9.82 2.962 14.327-1.946 4.507-2.962 9.389-2.962 14.327 0 19.935 16.219 36.154 36.154 36.154 14.484 0 27.348-8.589 33.058-21.485h159.607c5.71 12.896 18.573 21.485 33.058 21.485 19.936 0 36.154-16.219 36.154-36.154 0-4.938-1.016-9.82-2.962-14.327 1.946-4.507 2.962-9.388 2.962-14.327 0-19.935-16.219-36.154-36.154-36.154z"/><path d="m184.388 234.143c2.219 0 4.415-.98 5.896-2.858l1.931-2.45c4.041-5.129 10.538-7.583 16.964-6.403l6.398 1.175c4.067.752 7.981-1.947 8.731-6.021.748-4.074-1.948-7.983-6.022-8.731l-6.398-1.175c-11.904-2.188-23.962 2.362-31.455 11.873l-1.93 2.448c-2.563 3.253-2.005 7.969 1.248 10.533 1.375 1.083 3.011 1.609 4.637 1.609z"/><path d="m292.322 223.607 6.398-1.175c6.42-1.178 12.922 1.273 16.965 6.405l1.93 2.448c1.48 1.878 3.677 2.858 5.896 2.858 1.625 0 3.263-.526 4.638-1.61 3.253-2.564 3.812-7.28 1.248-10.533l-1.929-2.447c-7.494-9.511-19.553-14.061-31.456-11.874l-6.398 1.175c-4.074.748-6.771 4.657-6.022 8.731.748 4.075 4.658 6.767 8.73 6.022z"/><path d="m181.444 111.115c19.887 0 36.066-16.179 36.066-36.066s-16.18-36.066-36.066-36.066-36.065 16.179-36.065 36.066 16.179 36.066 36.065 36.066zm0-57.132c11.616 0 21.066 9.45 21.066 21.066s-9.45 21.066-21.066 21.066c-11.615 0-21.065-9.45-21.065-21.066s9.45-21.066 21.065-21.066z"/><path d="m374.731 141.244c14.793 0 26.828-12.035 26.828-26.829s-12.035-26.829-26.828-26.829-26.828 12.035-26.828 26.829 12.035 26.829 26.828 26.829zm0-38.657c6.522 0 11.828 5.306 11.828 11.829s-5.306 11.829-11.828 11.829-11.828-5.306-11.828-11.829 5.305-11.829 11.828-11.829z"/><path d="m441.316 186.871c12.885 0 23.368-10.483 23.368-23.368s-10.483-23.368-23.368-23.368-23.367 10.483-23.367 23.368 10.483 23.368 23.367 23.368zm0-31.735c4.614 0 8.368 3.754 8.368 8.368s-3.754 8.368-8.368 8.368c-4.613 0-8.367-3.754-8.367-8.368s3.754-8.368 8.367-8.368z"/></g></svg>