<?xml version="1.0" encoding="iso-8859-1"?>
<!-- Generator: Adobe Illustrator 17.1.0, SVG Export Plug-In . SVG Version: 6.00 Build 0)  -->
<!DOCTYPE svg PUBLIC "-//W3C//DTD SVG 1.1//EN" "http://www.w3.org/Graphics/SVG/1.1/DTD/svg11.dtd">
<svg version="1.1" id="Capa_1" xmlns="http://www.w3.org/2000/svg" xmlns:xlink="http://www.w3.org/1999/xlink" x="0px" y="0px"
	 viewBox="0 0 446.615 446.615" style="enable-background:new 0 0 446.615 446.615;" xml:space="preserve">
<path d="M131.799,183.231c10.718,6.367,22.734,9.551,34.752,9.551c12.017,0,24.034-3.184,34.752-9.552
	c24.299-14.436,37.998-42.327,38.033-77.022c0.002-1.713-0.026-12-0.026-12V33.453C239.31,15.062,224.284,0,205.893,0h-78.688
	C108.813,0,94.31,15.062,94.31,33.453v55.421c0,0-0.459,20.283-0.245,24.212C95.773,144.582,109.128,169.764,131.799,183.231z
	 M191.088,165.813c-15.137,8.992-33.941,8.88-49.074-0.11C124.686,155.408,114.626,135,113.821,109h105.457
	C218.473,135,208.415,155.52,191.088,165.813z M114.31,33.453c0-7.363,5.532-13.453,12.896-13.453h78.688
	c7.363,0,13.417,6.09,13.417,13.453V89h-105V33.453z M189.133,55c0,5.522-4.477,10-10,10h-3.823v3.327
	c0,5.523-4.476,10.001-9.998,10.002c-5.523,0.001-10.002-4.476-10.002-9.998V65h-3.289c-5.522,0-10-4.477-10-10
	c0-5.522,4.477-10,10-10h3.289v-3.781c0-5.523,4.476-10.001,9.998-10.002c5.523-0.001,10.002,4.476,10.002,9.998V45h3.823
	C184.655,45,189.133,49.477,189.133,55z M217.877,407c0,5.522-4.478,10-10,10H64.259c-2.971,0-5.788-1.216-7.688-3.5
	c-1.899-2.284-2.686-5.189-2.145-8.11l23.567-127.234c6.127-33.082,33.406-57.337,71.193-63.299
	c18.877-2.981,38.709-0.985,55.845,5.618c19.026,7.332,33.7,19.733,42.434,35.869c2.63,4.856,0.823,10.918-4.034,13.547
	c-4.855,2.631-10.925,0.811-13.554-4.047c-14.905-27.534-50.662-35.531-77.573-31.283c-29.61,4.672-50.038,22.259-54.645,47.133
	L76.281,397h131.596C213.399,397,217.877,401.477,217.877,407z M294.813,337.826c15.477,0,28.067-14.406,28.067-32.113
	S310.29,273.6,294.813,273.6s-28.067,14.406-28.067,32.113S279.337,337.826,294.813,337.826z M294.813,293.6
	c3.815,0,8.067,4.975,8.067,12.113s-4.252,12.113-8.067,12.113s-8.067-4.975-8.067-12.113S290.998,293.6,294.813,293.6z
	 M254.023,324.225c-3.814-14.789-16.271-25.523-29.619-25.523c-1.792,0-3.584,0.192-5.326,0.573
	c-6.695,1.461-12.45,5.627-16.205,11.728c-4.502,7.315-5.73,16.754-3.372,25.893c3.814,14.789,16.271,25.523,29.617,25.524
	c0,0,0,0,0.001,0c1.792,0,3.584-0.193,5.327-0.574c6.694-1.461,12.448-5.626,16.204-11.728
	C255.152,342.801,256.382,333.363,254.023,324.225z M233.617,339.635c-0.906,1.472-2.063,2.37-3.437,2.671
	c-0.345,0.075-0.702,0.113-1.063,0.113c-3.705,0-8.553-3.936-10.252-10.521c-0.993-3.848-0.604-7.741,1.04-10.413
	c0.906-1.472,2.063-2.37,3.438-2.671c0.349-0.076,0.695-0.112,1.061-0.112c3.706,0,8.555,3.935,10.254,10.521
	C235.651,333.069,235.262,336.962,233.617,339.635z M387.809,311.002c-3.754-6.102-9.509-10.267-16.204-11.728
	c-1.742-0.381-3.534-0.573-5.326-0.573c-13.348,0-25.805,10.734-29.619,25.522c-2.358,9.14-1.129,18.577,3.373,25.894
	c3.756,6.102,9.51,10.057,16.204,11.518c1.742,0.381,3.535,0.365,5.327,0.365c0.002,0,0.001,0,0.002,0
	c13.345,0,25.802-10.526,29.617-25.315C393.541,327.545,392.312,318.317,387.809,311.002z M371.817,331.898
	c-1.699,6.585-6.547,10.521-10.252,10.521c-0.361,0-0.719-0.038-1.063-0.113c-1.374-0.301-2.53-1.199-3.437-2.671
	c-1.645-2.673-2.034-6.565-1.041-10.414c1.699-6.585,6.548-10.52,10.254-10.52c0.36,0,0.717,0.038,1.061,0.112
	c1.375,0.301,2.531,1.199,3.438,2.671C372.421,324.156,372.81,328.05,371.817,331.898z M294.954,350.561
	c-24.815,0-45.005,21.545-45.005,48.027s20.189,48.027,45.005,48.027s45.005-21.545,45.005-48.027S319.77,350.561,294.954,350.561z
	 M294.954,426.615c-13.788,0-25.005-12.573-25.005-28.027s11.217-28.027,25.005-28.027s25.005,12.573,25.005,28.027
	S308.742,426.615,294.954,426.615z"/>
<g>
</g>
<g>
</g>
<g>
</g>
<g>
</g>
<g>
</g>
<g>
</g>
<g>
</g>
<g>
</g>
<g>
</g>
<g>
</g>
<g>
</g>
<g>
</g>
<g>
</g>
<g>
</g>
<g>
</g>
</svg>
